<?xml version="1.0" encoding="UTF-8"?>
<svg id="Capa_2" data-name="Capa 2" xmlns="http://www.w3.org/2000/svg" viewBox="0 0 443.96 252.53">
  <defs>
    <style>
      .cls-1 {
        fill: #19b2c0;
      }

      .cls-2 {
        fill: #622f88;
      }

      .cls-3 {
        fill: #e03d8e;
      }
    </style>
  </defs>
  <g id="Capa_1-2" data-name="Capa 1">
    <g>
      <g>
        <path class="cls-1" d="M112.24,149.3c-1.08-.64-4.77-1.97-4.99-2.65l-2.72-20.21c-.16-1.16-1.52-1.7-2.43-.96-1.52,1.25-3.36,2.87-3.7,3.12-6.97,5.19-15.93,9.86-24.33,12.16-1.04.29-5.39,1.66-5.99.81l-5.09-13.91c-1.36-1.97-3.6-.96-3.78,1.18l5.03,13.27c.36.72-.98.88-1.45.94-6.81.92-14.33.53-21.11-.45-6.86-1-13.46-2.98-19.82-5.63-1.1-.46-2.26.48-2.05,1.65,2.15,11.7,5.53,23.12,9.29,34.38-8.21,9.43-15.79,19.26-14.38,32.64.27,2.56,2.28,6,2.4,7.34.06.72-.92,2.02-1.08,3.01-.64,3.85,2.42,7.78,6.42,7.59,1.11-.05,2.86-1.12,3.38-1.03.57.1,4.43,2.37,6.01,2.89,9.73,3.19,20.7,1.7,30.35-1.07,2.35-.67,8.33-3.4,10.04-3.48,2.01-.1,7.77,3.2,9.49,2.68,3.72-1.12-.25-6.14.6-7.47,16.53-9.91,41.98-29.44,40.12-51.13-.57-6.72-4.5-12.28-10.21-15.67ZM87.52,139.79l12.98-7.86c.54-.33,1.25.02,1.32.65l1.54,13.5c-8.89-1.62-19.01.82-24.83,8.06-1.46,1.82-2.03,3.9-3.6,5.52l-5.1-14c6.15-1.12,12.01-3.34,17.69-5.87ZM24.78,143.8c-.16-.66.47-1.24,1.12-1.03,12.87,4.27,26.6,5.81,40.08,3.77l15.32,41.13-6.36,1.7c-3.05-10.29-3.33-23.8-15.47-27.61-9.79-3.07-19.49,2.47-26.76,8.5-1.31-.1-6.41-20.17-7.91-26.46ZM66.86,219.07c-9.76,2.91-19.96,5.69-30.22,3.7-1.48-.29-7.26-2.03-8.02-3.03-.66-.89.16-2.15-.13-3.65-.83-4.24-4.28-5.54-8.25-5.13-4.9-10.64,1.08-23.94,8.63-31.77.41-.43,1.8-2.08,2.33-1.69l2.01,4.88c-2.85,3.19-5.49,7.01-7.17,10.95-.7,1.64-3.18,7.88-1.94,9.09,1.06.68,2.33.85,3.07-.33,1.64-5.68,3.61-11.79,8.27-15.69,6.58,14.44,16.75,24.66,30.81,31.79.45.23.8-.22.6.88ZM38.21,183.42c3.17-3.09,7.34-5.07,11.59-6.24,1.43-.39,4.99-1.39,6.25-1.39h9.12c-6.08-8.77-15.13-6.61-22.88-1.45-1.33.89-5.06,4.54-5.77,4.84-.7.29-.57-.27-.73-.53-2.82-4.81-1.1-5.24,2.76-8.04,12.33-8.98,24.64-8.84,29.47,7.22,2.06,6.84,3.49,13.96,5.21,20.88-5.75-.11-11.7-1.53-16.76-4.24-.28-.09-.31.37-.2.63.48,1.16,4.37,5.4,5.51,6.38,3.85,3.32,8.82,5.52,13.99,5.32l2.77,11.87c-18.33-4.65-32.71-18.29-40.32-35.24ZM85.12,209.53c-.5.41-3.9,3.13-4.25,2.75l-1.7-6.36c6.34-2.05,10.74-7.86,12.73-14.01-.25-.26-4.78,2.82-5.51,3.19-2.66,1.35-5.5,2.32-8.38,3.1-1.21.12-2.01-4.65-1.78-4.98,2.02-.99,9.38-2.13,9.62-4.56-2.58-10.93-13.29-23.23-3.24-33.42,5.37-5.45,13.9-6.63,21.17-5.35,1.82,20.81-1.44,45.74-18.66,59.63ZM99.12,199.13c1.18-2.55,2.56-5.02,3.6-7.65,4.6-11.67,5.76-24.65,5.33-37.15-.03-.74-1.01-3.09.18-2.73,2.28.69,6.63,4.46,7.94,6.49,8.65,13.33-6.46,33.22-17.05,41.03Z"/>
        <path class="cls-1" d="M98.93,158.37c-2.26-.97-5.99-1.13-8.41-.72-3.29.55-7.11,4.22-8.6,7.1-.26.5-1.33,1.97-.63,2.35,6.85-.41,13.52-3.13,18.47-7.85.4-.54-.5-.73-.83-.87Z"/>
        <path class="cls-1" d="M417.66,200.66c8.07,10.66,11.33,24.89-.21,34.51-20.75,17.29-61.16-3.76-82.65-11.99-18.76-7.19-35.25-12.77-55.86-10.66-8.2.84-14.21,2.62-20.29,5.21,0,0,0,0,0,0-2.73,1.11-9.49,4.35-13.06,10.43,0,0,0,0-.01,0-.03.05-.05.1-.07.15-.7,1.22-1.27,2.54-1.65,3.99h.02c-3.64,12.03,4.97,21.83,18.85,20.02,9.09-1.19,13.7-11.9,9.07-19.61-5.37-8.96-19.65-4.7-18.56,5.81.94,9.07,14.98,7.7,13.04-.71-.5-2.18-4.55-4.69-5.38-2.15-.59,1.8,2.95,2.35,1.24,4.61-5.79,2.85-6.68-5.9-1.88-7.82,9.53-3.81,13.95,11.35,3.86,15.32-10.37,4.08-19.81-4.22-16.37-14.64h0s2.13-7.65,12.69-11.89c3.56-1.42,8.84-3.07,10.93-3.57,37.97-8.92,71.99,17.42,107.45,25.56,12.6,2.89,26.17,4.18,37.78-2.54,16.8-9.72,14.07-29.35,4.28-43.23l-3.22,3.21Z"/>
        <path class="cls-1" d="M264.66,127.42c.42.53,2.84,3.23,8.29,3.23,2.61,0,5.93-.62,10.05-2.41.83-.34,20.77-8.73,52.06-36.16,24.17-21.2,53.71-51.12,59.43-74.97-1.26.42-2.5.65-3.69.71-6.34,22.72-34.68,51.28-57.98,71.71-30.81,27.01-50.92,35.49-51.14,35.59-10.7,4.63-14.21.39-14.34.23l-.08-.11c-5.38-6.28,1.83-21.61,20.29-43.18,11.13-13,23.45-24.89,28.71-29.83l12.47-10.93c1.36.93,2.88,1.42,4.24,1.97,8.25,3.38,18.11-2.98,17.96-11.98-.03-1.71-.44-4.23-1.33-6.41,9.57-6.29,19.1-13.2,30.21-16.45-.21-1.31-.21-2.65.01-3.95-12.24,2.88-22.6,10.76-32.94,17.52-7.16-6.16-18.74-3.28-21.23,6.06-.98,3.68-.54,7.41.89,9.77l-14.25,13.42.03.02c-5.94,5.65-17.13,16.63-27.33,28.55-20.25,23.64-27.09,39.65-20.34,47.59Z"/>
        <path class="cls-1" d="M228.06,2.29c-8.75,1.48-11.23,15.25-2.85,18.35,11.71,4.32,14.35-12.91,4.06-11.62-4.19.52-4.5,6.4-1.33,5.91.79-.12,3.65-4.41,3.96-.58.3,3.79-6.64,3.89-7.78.17-3.19-10.39,13.7-11.56,15.41-1.41,1.85,10.99-8.11,18.06-17.19,21.23-18.63,6.51-44.23,2.86-62.82-2.76-18.05-5.45-53.58-22.77-70.26-9.38-8.93,7.16-7,19.84-1.53,28.55,0,0,1.29-.63,2.24-.97,1.08-.39,1.81-.54,1.81-.54-6.55-8.62-7.54-21.26,3.84-26.2,16.36-7.09,46.49,7.44,63.06,12.36,21.84,6.48,65.36,12.59,81.13-8.21,7.87-10.39,2.78-27.35-11.74-24.9Z"/>
      </g>
      <g>
        <path class="cls-2" d="M222.15,48.62c18.73-1.39,31.35,3.38,32.76,23.86.5,7.21-1.61,24.73,1.77,30.06,2.29,3.62,7.28,4.61,5.05,10.28-1.97,5.01-17.23,4.14-21.27,2.11-3.76-1.88-3.32-4.82-8.46-3.4-8.35,2.3-9.28,6.26-20.16,5.28-21.19-1.9-25.26-31.36-4.37-37.88,5.83-1.82,14.26-1.07,19.17-3.32,6.63-3.04,4.79-16.88-4.86-14.62-6.64,1.55-11.33,20.27-20.74,14-4.41-2.94-4.27-10.63-2.36-15.04,3.48-8.06,15.56-10.75,23.47-11.33ZM224.67,85.51c-9.63,1.54-6.76,19.25,3.28,17.29,5.33-1.04,6.34-18.83-3.28-17.29Z"/>
        <path class="cls-2" d="M390.2,48.62c35.87-2.18,52.2,42.1,23.98,62.18-26.42,18.8-62.92-3-57.01-34.94,7.89-7.85,15.4-16.07,22.28-24.83,3.34-1.46,7.12-2.19,10.75-2.41ZM386.35,64.3c-5.63,1.16-5.02,10.22-4.5,14.49.96,7.89,6.52,30.23,18.59,22.09,8.09-5.45,1.5-21.15-2.3-27.78-2.43-4.24-6.16-9.97-11.79-8.8Z"/>
        <path class="cls-2" d="M40.09,48.62c13.37-.62,27.44,6.94,31.18,20.34,1.6,5.72,2.11,14.01-4.85,16.16-7.99,2.47-18.35-1.09-26.46-.15-2.96.35-3.1,2.15-2.65,4.79,1.26,7.36,13.99,10.16,20.08,7.98,4.01-1.44,8.43-8.14,13.24-6.07,4.7,2.02.55,12.1-1.66,15.09-4.37,5.93-15.09,9.49-22.21,10.04C-1.82,120.56-1.86,50.56,40.09,48.62ZM37.78,62.64c-3.57,3.61-4.47,13.51,2.19,14.28,7.76.9,10.84-2.52,8.39-10.09-1.44-4.45-6.72-8.1-10.58-4.19Z"/>
        <path class="cls-2" d="M144.01,49.51c5.44-.1,11.02.33,16.5.28,8.88-.07,16.91-1.64,25.24,3.15,11.71,6.72,12.23,27.16,1.65,35.2-7.07,5.37-14.61,3.22-22.15,5.01-2.98.71-3.14,2.92-2.85,5.63.55,5.28,6.01,6.37,6.7,9.42.58,2.59.52,6.57-2.22,7.79-5.54,2.46-11.88.56-17.47.44-.85-.02-1.63.42-2.48.4-4.28-.1-13.19,1.26-14.8-3.91-1.45-4.64,5.17-7.68,6.71-12.25.87-2.58,1.37-7.96,1.52-10.79.28-5.31.23-22.9-2.37-26.94-1.01-1.56-3.42-2.42-4.11-3.95-1.27-2.85-1.12-7.24,2.12-8.68,1.51-.67,6.12-.77,8.02-.8ZM163.96,62.16c-3.22.96-3.33,14.61-1.75,17.28,2.16,3.64,7.83,1.25,9.31-2.09,2.33-5.26.28-17.55-7.56-15.2Z"/>
        <path class="cls-2" d="M341.82,49.05c3.39-.13,14.78-.73,16.02,3.25,1.95,6.23-3.57,7.66-5.69,11.33-.66,1.14-.65,2.42-1.17,3.5-1.02,2.15-7.4,8.06-9.5,10.02-3.71,3.48-7.83,6.62-11.68,9.96-.63-.4-.57-.82-.65-1.46-.77-6.48,1.71-18.06-2.35-23.11-.91-1.13-2.2-1.68-3.16-2.78-3.75-4.27-1.12-9.07,4.15-9.88,3.86-.59,9.96-.67,14.03-.83Z"/>
        <path class="cls-2" d="M350.82,82.87c1.19,6.23-1.62,14.36,2.36,19.92,1.37,1.91,4.36,3.09,5.08,5.53,1.16,3.91-.16,6.43-3.96,7.54-4.09,1.2-11.94.96-16.41.99-5.66.04-18.66,1.84-16.16-7.67.82-3.13,15.13-13.78,18.48-16.74,3.02-2.68,6.17-6.49,9.33-8.92.43-.33.54-.82,1.27-.63Z"/>
        <path class="cls-2" d="M165.69,122.02c13.13-1.6,16.67,16.03,4.03,18.04-14.08,2.23-17.88-16.34-4.03-18.04Z"/>
        <path class="cls-2" d="M439.31,135.57c-8.01-14.78-26.97-14.08-39.4-5.43-15.71,10.94-19.22,28.31-31.05,42.36-3.76,4.47-12.9,13.9-17.82,16.56-2.25,1.22-3.73,2.26-3.65-1.08.15-5.78,12.26-20.43,15.53-26.51,8.12-15.14,2.96-26.17-13.33-30.61.04-8.03-8.27-11.2-15.02-8.34-7.65,3.23-11.6,13.64-7.03,20.84,1.01,1.59,3.89,3.3,4.41,4.1.2.32.26.6.13.96-4.77,10.55-10.34,21.14-18.83,29.17l5.51-11.04c3.79-8.86,7.33-28.37-3.31-33.59-7.36-3.61-16.53-.19-22.14,5.16-1.07-2.61-2.17-4.64-5.07-5.53-6.08-1.88-9.12.75-11.92,5.53-6.25,10.69-17.12,43.1-27.91,47.21-.79.3-1.56.67-2.24-.07-.76-1.11.68-4.76,1.18-6.08,4.55-11.81,18.33-28.19,11.59-41.49-6.2-12.21-24.02-3.66-30.35,4.26-2.18-15.43-21.33-11.29-28.65-2.12.32-9-11.09-10.63-15.57-3.69-4.38,6.79-7.94,17.89-11.86,25.49-3.47,6.73-10.43,17.27-16.53,21.67-1.24.89-3.2,2.59-4.65,2.19-1.54-1.15,1.09-6.56,1.8-8.02,3.06-6.29,14.41-22.16,14.39-28.09-.03-7.1-9.11-8.9-14.17-5.23-3.5,2.53-8.08,13.3-10.4,17.61-4.41,8.22-10.28,16.57-11.1,26.25-1.59,18.66,18.05,16.79,26.94,6.15.59,9.14,13.37,9.39,17.69,2.84,4.72-7.16,8.44-18.92,12.85-27.04,3.13-5.76,11.61-20.01,17.73-22.16,5.65-1.98,2.5,5.84,1.59,8.38-3.18,8.85-8.69,17.49-12.39,26.23-1.25,2.96-4,9-4.18,11.97-.53,8.87,13.14,9.15,17.49,2.19,3.89-6.23,6.88-16.4,10.16-23.36,3.01-6.4,11.98-23.13,18.72-25.41,7.12-2.4,1.56,9.3.25,12.13-4.49,9.74-16.5,27.18-9.21,37.76,3.84,5.56,11.26,4.78,16.9,2.83-2.03,7.5-13.01,23.81-.85,27.16,4.83,1.07,7.83.19,9.53-1.42,1.41-1.33,2.52-4.43,3.96-8.41l8.79-22.85c6.57,9.59,19.22,7.98,28.86,4.67,21.9-7.52,35.24-29.66,45.86-48.74l1.83.4c.33.37-.07,1.83-.29,2.39-2.27,5.8-8.09,12.71-11.2,18.5-5.48,10.21-9.78,26.42,2.76,33.46,15.04,8.44,29.69-8.79,36.99-20.01,4.79,21.07,28.51,28.67,44.86,14.62l3.39-3.36c12.58-14.26,28.57-42.56,18.38-61.34ZM281.66,186.3c-10.27,2.67-3.26-13.08-1.36-17.06,3.12-6.55,12.9-21.42,20.33-22.96,2.21-.46,3.83,0,4.25,2.34,1.63,9.06-13.99,35.28-23.22,37.68ZM421.38,154.58c-2.45,9.61-13.25,27.09-20.91,33.41-12.07,9.97-7.8-9.21-5.53-15.29,2.62-7.03,15.35-27.81,22.81-29.38,6.59-1.39,4.62,7.39,3.63,11.27Z"/>
        <path class="cls-2" d="M129.3,54.17c3.13,4.19,3.66,14.59-2.63,16.06s-10.67-7.34-16.02-8.44c-2.77-.57-10.19-.43-7.24,3.85,2.44,3.53,18.38,7.54,23.31,10.64,14.53,9.14,7.35,30-5.77,36.6-11.1,5.58-37.19,5.59-43.21-7.56-1.59-3.48-2.51-12.31.36-15.13,1.97-1.94,4.32-.82,6.35.35,6.12,3.54,7.5,11.33,15.82,12.18,6.69.69,10.82-3.48,3.95-7.77-6.31-3.94-15.51-5.23-21.19-10.63-9.8-9.33-7.18-27.27,4.7-33.56,0,0,1.59-.76,2.47-1.1,11.87-4.65,33.33-3.18,39.09,4.52Z"/>
        <path class="cls-2" d="M275.97,114.26c2.35,1.23,5.8,2.59,8.39,3.06,1.19.22,4.11.62,5.2.34,4.73-1.21,18.63-12.02,23.1-15.53,3.04-2.39,5.91-5.2,9.14-7.2-4.86-5.36-9.48,2.05-14.43,3.61-7.48,2.37-15.43-1.21-19.76-7.32-.73-1.03-3.06-3.72-4-8.59-.78-5.18-.71-13.62,4.1-16.9,2.55-1.74,8.11-1.82,10.75-.29,10.18,5.88,13.43,17.51,20.58,12.53,4.87-3.39,5.07-11.17,2.38-16.92-1.22-2.61-3.15-5.03-8.95-8.32-14.4-8.16-39.29-4.97-48.88,11.37-7.8,13.29-6.73,30.96,2.96,43,3.78,4.31,8.6,6.73,9.41,7.16Z"/>
        <ellipse class="cls-2" cx="338" cy="31.6" rx="13.4" ry="13.31"/>
      </g>
      <g>
        <path class="cls-3" d="M259.48,38.87c1.43,1.57,1.85,7.25,3.38,7.26,1.83,0,1.88-6.17,3.38-7.68,1.35-1.36,10.87-2.66,6.9-4.75-3.24-1.7-6.03-.17-7.84-4.46-.58-1.38-1.12-6.19-2.85-5.62-1,.33-1.71,6.2-3,7.61-1.38,1.51-4.92,1.81-6.76,2.58-.54.22-1.16.23-1.08,1.06,0,1.56,6.16,2.12,7.89,4Z"/>
        <path class="cls-3" d="M142.95,218.17c-1.23-1.2-2.04-8.07-3.79-7.66-1.81,1.71-1.51,5.9-2.99,7.62-1.7,1.98-8.09,1.51-7.44,4.43.11.48,5.64,1.53,6.84,2.56,1.87,1.59,2.11,8.32,4.42,7.89,2.19-4,.88-7.2,5.74-9.12.89-.35,6.22-1.18,4.13-3.09-1.11-1.02-5.57-1.3-6.92-2.62Z"/>
        <path class="cls-3" d="M200.96,27.77c4,3.49,8.57-2.72,5.18-5.82-3.82-3.5-9.25,2.27-5.18,5.82Z"/>
        <path class="cls-3" d="M438.37,200.84c-5.17,2.09-.06,10.43,4.43,6.33,2.74-2.5.37-8.27-4.43-6.33Z"/>
        <path class="cls-3" d="M292.24,228.35c-3.56,3.15,1.39,9.28,5.18,5.82,3.41-3.11-1.23-9.31-5.18-5.82Z"/>
        <path class="cls-3" d="M71.49,47.73c4.86-.63,3.74-8.37-1.13-7.56-4.92.82-3.84,8.2,1.13,7.56Z"/>
        <path class="cls-3" d="M132.07,140.41c4.86-.63,3.74-8.37-1.13-7.56-4.92.82-3.84,8.2,1.13,7.56Z"/>
        <path class="cls-3" d="M389.57,218.54c-4.56-1.58-7.27,2.91-9.65,2.86-2.01-.04-3.37-6.06-6.98-7.01-2.03-.53-5.96-.56-6.64,1.91-.81,2.97,4.93,1.27,6.33,2.11.67.4,2.14,3.83,3.25,4.92,5.21,5.13,9.4-2.22,12.89-1.01.84.29,2.81,4.38,3.83,5.3,4.06,3.68,12.57-1.42,11.68-4.64-.91-3.29-4.32.74-5.3,1.33-4.82,2.9-5.36-4.38-9.4-5.78Z"/>
        <path class="cls-3" d="M393.36,13.02c3.54-1.24,4.54-4.66,3.97-7.48-.55-2.72-2.77-5.8-7.24-5.52-3.58.22-5.08,2.19-5.71,3.81-1.03,2.65-.37,6.02,1.56,8.02,1.79,1.85,4.35,2.26,7.41,1.18Z"/>
        <path class="cls-3" d="M14.27,121.91c-1.23-1.2-2.04-8.07-3.79-7.66-1.81,1.71-1.51,5.9-2.99,7.62-1.7,1.98-8.09,1.51-7.44,4.43.11.48,5.64,1.53,6.84,2.56,1.87,1.59,2.11,8.32,4.42,7.89,2.19-4,.88-7.2,5.74-9.12.89-.35,6.22-1.18,4.13-3.09-1.11-1.02-5.57-1.3-6.92-2.62Z"/>
      </g>
    </g>
  </g>
</svg>